<svg xmlns="http://www.w3.org/2000/svg" viewBox="0 0 512 512"  xmlns:v="https://vecta.io/nano"><path d="M458.944 114.16L341.376 4.32C338.4 1.552 334.512 0 330.448 0H74.128C68 0 48 2.208 48 30.496v448.912C48 510.416 69.76 512 74.128 512h353.44C444.064 512 464 497.472 464 479.408V125.84c0-4.432-1.84-8.672-5.056-11.68zM432 477.456c-1.136 1.104-3.344 2.352-4.576 2.544H80V32h244.128L432 132.8v344.656z"/><path d="M448 112h-92.224c-2.816 0-3.776-7.664-3.776-11.152V32a16 16 0 1 0-32 0v68.848C320 126.656 334.368 144 355.776 144H448a16 16 0 1 0 0-32zm-104.992 79.648c-6.256-6.256-16.368-6.256-22.624 0L157.408 354.592c-6.256 6.256-6.256 16.368 0 22.624 3.12 3.12 7.216 4.688 11.312 4.688s8.192-1.568 11.312-4.688l162.976-162.944c6.256-6.256 6.256-16.368 0-22.624zm-156.288-18.08c-26 0-47.152 21.152-47.152 47.152s21.152 47.152 47.152 47.152 47.152-21.152 47.152-47.152-21.152-47.152-47.152-47.152zm0 62.304c-8.352 0-15.152-6.8-15.152-15.152s6.8-15.152 15.152-15.152 15.152 6.8 15.152 15.152-6.8 15.152-15.152 15.152zm127.408 64.16c-26.416 0-47.904 21.488-47.904 47.904s21.488 47.904 47.904 47.904 47.904-21.488 47.904-47.904-21.488-47.904-47.904-47.904zm0 63.808c-8.768 0-15.904-7.136-15.904-15.904s7.136-15.904 15.904-15.904 15.904 7.136 15.904 15.904-7.136 15.904-15.904 15.904z"/></svg>